<?xml version="1.0" standalone="no"?>
<!DOCTYPE svg PUBLIC "-//W3C//DTD SVG 20010904//EN"
 "http://www.w3.org/TR/2001/REC-SVG-20010904/DTD/svg10.dtd">
<svg version="1.0" xmlns="http://www.w3.org/2000/svg"
 width="700.000000pt" height="700.000000pt" viewBox="0 0 700.000000 700.000000"
 preserveAspectRatio="xMidYMid meet">
<metadata>
Created by potrace 1.14, written by Peter Selinger 2001-2017
</metadata>
<g transform="translate(0.000000,700.000000) scale(0.100000,-0.100000)"
fill="#000000" stroke="none">
<path d="M1535 6984 c-277 -35 -532 -119 -755 -249 -214 -126 -437 -364 -568
-606 -85 -160 -164 -409 -187 -598 -4 -30 -9 -63 -12 -75 -9 -36 -11 -458 -3
-526 5 -36 11 -90 14 -120 3 -30 17 -116 30 -190 23 -124 27 -148 40 -205 94
-415 311 -864 610 -1260 62 -82 272 -340 303 -373 10 -10 58 -63 107 -118 93
-103 383 -393 1032 -1033 208 -205 411 -408 449 -450 187 -204 234 -258 391
-446 150 -181 388 -516 473 -667 18 -32 36 -58 40 -58 4 0 15 15 25 33 46 80
237 363 319 472 79 105 245 311 322 400 185 213 296 328 683 710 606 598 973
965 1053 1055 111 125 209 238 254 295 22 28 42 52 45 55 12 10 128 166 196
265 241 346 417 730 502 1095 24 102 59 278 67 340 4 25 8 59 11 75 22 151 27
548 9 665 -41 266 -93 447 -177 615 -47 93 -103 189 -132 226 -12 14 -34 43
-50 65 -49 65 -206 217 -286 276 -205 152 -484 269 -745 312 -49 8 -106 18
-125 21 -78 13 -417 13 -525 -1 -437 -55 -759 -236 -1002 -565 -69 -94 -99
-144 -167 -284 -101 -207 -146 -337 -217 -627 -67 -278 -62 -265 -73 -198 -8
55 -34 168 -61 273 -9 34 -18 69 -20 77 -1 8 -26 85 -55 170 -123 371 -330
695 -547 857 -21 15 -40 30 -43 34 -8 9 -98 69 -104 69 -3 0 -27 13 -54 29
-67 39 -210 95 -308 121 -95 24 -108 27 -234 46 -76 12 -429 10 -525 -2z"/>
</g>
</svg>
